<mxfile host="65bd71144e">
    <diagram id="LdqAu2a2ndVUxPt5kBrp" name="Page-1">
        <mxGraphModel dx="1081" dy="883" grid="0" gridSize="10" guides="1" tooltips="1" connect="1" arrows="1" fold="1" page="0" pageScale="1" pageWidth="850" pageHeight="1100" math="0" shadow="0">
            <root>
                <mxCell id="0"/>
                <mxCell id="1" parent="0"/>
                <mxCell id="2" style="edgeStyle=none;html=1;entryX=0.008;entryY=0.498;entryDx=0;entryDy=0;entryPerimeter=0;endArrow=open;endFill=0;dashed=1;jumpSize=11;startSize=10;strokeWidth=1.5;endSize=11;strokeColor=#000000;fontSize=19;fontColor=#000000;fontStyle=1" edge="1" parent="1" source="5" target="16">
                    <mxGeometry relative="1" as="geometry"/>
                </mxCell>
                <mxCell id="3" value="Use" style="edgeLabel;html=1;align=center;verticalAlign=middle;resizable=0;points=[];fontSize=14;" vertex="1" connectable="0" parent="2">
                    <mxGeometry x="-0.1112" y="-1" relative="1" as="geometry">
                        <mxPoint x="6" y="-3" as="offset"/>
                    </mxGeometry>
                </mxCell>
                <mxCell id="4" style="edgeStyle=none;jumpSize=11;html=1;entryX=0.008;entryY=0.527;entryDx=0;entryDy=0;entryPerimeter=0;strokeColor=#000000;strokeWidth=1.5;fontSize=13;endArrow=classic;endFill=1;startSize=12;endSize=9;sourcePerimeterSpacing=26;targetPerimeterSpacing=5;fontStyle=1" edge="1" parent="1" source="5" target="27">
                    <mxGeometry relative="1" as="geometry"/>
                </mxCell>
                <mxCell id="5" value="Cliente" style="shape=umlActor;verticalLabelPosition=bottom;verticalAlign=top;html=1;strokeColor=#000000;fontColor=#000000;fontStyle=1" vertex="1" parent="1">
                    <mxGeometry x="102" y="137" width="30" height="60" as="geometry"/>
                </mxCell>
                <mxCell id="6" style="edgeStyle=none;html=1;endArrow=block;endFill=0;strokeWidth=1.5;endSize=13;targetPerimeterSpacing=5;strokeColor=#000000;fontStyle=1" edge="1" parent="1" source="7" target="5">
                    <mxGeometry relative="1" as="geometry"/>
                </mxCell>
                <mxCell id="7" value="PersonaNatural" style="shape=umlActor;verticalLabelPosition=bottom;verticalAlign=top;html=1;strokeColor=#000000;fontColor=#000000;fontStyle=1" vertex="1" parent="1">
                    <mxGeometry x="23" y="272" width="30" height="60" as="geometry"/>
                </mxCell>
                <mxCell id="8" style="edgeStyle=none;jumpSize=11;html=1;strokeWidth=1.5;endArrow=block;endFill=0;startSize=12;sourcePerimeterSpacing=0;targetPerimeterSpacing=0;endSize=12;strokeColor=#000000;fontStyle=1" edge="1" parent="1" source="9">
                    <mxGeometry relative="1" as="geometry">
                        <mxPoint x="139" y="206" as="targetPoint"/>
                    </mxGeometry>
                </mxCell>
                <mxCell id="9" value="PersonaJuridica" style="shape=umlActor;verticalLabelPosition=bottom;verticalAlign=top;html=1;strokeColor=#000000;fontColor=#000000;fontStyle=1" vertex="1" parent="1">
                    <mxGeometry x="166" y="272" width="30" height="60" as="geometry"/>
                </mxCell>
                <mxCell id="10" value="TC" style="shape=umlActor;verticalLabelPosition=bottom;verticalAlign=top;html=1;fontColor=#000000;strokeColor=#000000;fontStyle=1" vertex="1" parent="1">
                    <mxGeometry x="113" y="-83" width="30" height="60" as="geometry"/>
                </mxCell>
                <mxCell id="11" value="" style="edgeStyle=none;html=1;endArrow=none;endFill=0;targetPerimeterSpacing=5;sourcePerimeterSpacing=26;fontColor=#000000;strokeColor=#000000;fontStyle=1" edge="1" parent="1" source="12" target="15">
                    <mxGeometry relative="1" as="geometry"/>
                </mxCell>
                <mxCell id="12" value="Empresa" style="shape=umlActor;verticalLabelPosition=bottom;verticalAlign=top;html=1;fontColor=#000000;labelBorderColor=none;strokeColor=#000000;fontStyle=1" vertex="1" parent="1">
                    <mxGeometry x="997" y="6" width="30" height="60" as="geometry"/>
                </mxCell>
                <mxCell id="13" style="edgeStyle=none;jumpSize=11;html=1;entryX=1.004;entryY=0.484;entryDx=0;entryDy=0;entryPerimeter=0;strokeColor=#000000;strokeWidth=1.5;fontSize=13;endArrow=classic;endFill=1;startSize=12;endSize=9;sourcePerimeterSpacing=26;targetPerimeterSpacing=5;fontStyle=1" edge="1" parent="1" source="15" target="27">
                    <mxGeometry relative="1" as="geometry"/>
                </mxCell>
                <mxCell id="14" style="edgeStyle=none;jumpSize=11;html=1;entryX=0.994;entryY=0.478;entryDx=0;entryDy=0;entryPerimeter=0;strokeColor=#000000;strokeWidth=1.5;fontSize=13;endArrow=open;endFill=0;startSize=12;endSize=9;sourcePerimeterSpacing=26;targetPerimeterSpacing=5;dashed=1;fontColor=#000000;fontStyle=1" edge="1" parent="1" source="15" target="16">
                    <mxGeometry relative="1" as="geometry"/>
                </mxCell>
                <mxCell id="15" value="Cajero" style="shape=umlActor;verticalLabelPosition=bottom;verticalAlign=top;html=1;fillColor=#FFFFFF;fontColor=#000000;labelBorderColor=none;strokeColor=#000000;fontStyle=1" vertex="1" parent="1">
                    <mxGeometry x="997" y="146" width="30" height="60" as="geometry"/>
                </mxCell>
                <mxCell id="16" value="Comprar productos" style="ellipse;whiteSpace=wrap;html=1;fontStyle=1" vertex="1" parent="1">
                    <mxGeometry x="408" y="145" width="130" height="61" as="geometry"/>
                </mxCell>
                <mxCell id="17" style="edgeStyle=none;jumpSize=11;html=1;strokeColor=#000000;strokeWidth=1.5;fontSize=14;endArrow=classicThin;endFill=1;startSize=12;endSize=9;sourcePerimeterSpacing=26;targetPerimeterSpacing=5;exitX=0.89;exitY=0.177;exitDx=0;exitDy=0;exitPerimeter=0;dashed=1;entryX=0.005;entryY=0.653;entryDx=0;entryDy=0;entryPerimeter=0;fontStyle=1" edge="1" parent="1" source="21" target="23">
                    <mxGeometry relative="1" as="geometry">
                        <mxPoint x="635.0181121826172" y="-68.87275695800781" as="targetPoint"/>
                    </mxGeometry>
                </mxCell>
                <mxCell id="18" value="&amp;lt;&amp;lt;extends&amp;gt;&amp;gt;" style="edgeLabel;html=1;align=center;verticalAlign=middle;resizable=0;points=[];fontSize=13;rotation=-15;" vertex="1" connectable="0" parent="17">
                    <mxGeometry x="0.2274" relative="1" as="geometry">
                        <mxPoint x="-24" y="-8" as="offset"/>
                    </mxGeometry>
                </mxCell>
                <mxCell id="19" style="edgeStyle=none;jumpSize=11;html=1;strokeColor=#000000;strokeWidth=1.5;fontSize=14;endArrow=classicThin;endFill=1;startSize=12;endSize=8;sourcePerimeterSpacing=26;targetPerimeterSpacing=5;exitX=0.969;exitY=0.695;exitDx=0;exitDy=0;exitPerimeter=0;dashed=1;entryX=0;entryY=0.538;entryDx=0;entryDy=0;entryPerimeter=0;fontStyle=1" edge="1" parent="1" source="21" target="24">
                    <mxGeometry relative="1" as="geometry">
                        <mxPoint x="659" y="40.299999999999955" as="targetPoint"/>
                        <mxPoint x="571" y="23" as="sourcePoint"/>
                    </mxGeometry>
                </mxCell>
                <mxCell id="20" value="" style="edgeStyle=none;jumpSize=11;html=1;dashed=1;strokeColor=#000000;strokeWidth=1.5;fontSize=13;endArrow=classicThin;endFill=1;startSize=12;endSize=9;sourcePerimeterSpacing=26;targetPerimeterSpacing=5;exitX=0.506;exitY=1.012;exitDx=0;exitDy=0;exitPerimeter=0;fontStyle=1" edge="1" parent="1" source="21" target="16">
                    <mxGeometry relative="1" as="geometry"/>
                </mxCell>
                <mxCell id="21" value="Pagar Compra" style="ellipse;whiteSpace=wrap;html=1;fontStyle=1" vertex="1" parent="1">
                    <mxGeometry x="398" y="-4" width="140" height="70" as="geometry"/>
                </mxCell>
                <mxCell id="22" style="edgeStyle=none;jumpSize=11;html=1;entryX=0.639;entryY=0.264;entryDx=0;entryDy=0;entryPerimeter=0;strokeColor=#000000;strokeWidth=1.5;fontSize=13;endArrow=classic;endFill=1;startSize=12;endSize=8;sourcePerimeterSpacing=0;targetPerimeterSpacing=0;fontStyle=1" edge="1" parent="1" source="23" target="10">
                    <mxGeometry relative="1" as="geometry"/>
                </mxCell>
                <mxCell id="23" value="Pagar en TC" style="ellipse;whiteSpace=wrap;html=1;labelBackgroundColor=none;fontStyle=1" vertex="1" parent="1">
                    <mxGeometry x="684" y="-102" width="140" height="53" as="geometry"/>
                </mxCell>
                <mxCell id="24" value="Pagar en efectivo" style="ellipse;whiteSpace=wrap;html=1;fontStyle=1" vertex="1" parent="1">
                    <mxGeometry x="686" y="12" width="140" height="60" as="geometry"/>
                </mxCell>
                <mxCell id="25" value="&amp;lt;&amp;lt;extends&amp;gt;&amp;gt;" style="edgeLabel;html=1;align=center;verticalAlign=middle;resizable=0;points=[];fontSize=13;rotation=0;fontStyle=1" vertex="1" connectable="0" parent="1">
                    <mxGeometry x="582.0042681250018" y="42.00217841371354" as="geometry">
                        <mxPoint x="22.854050431714104" y="-11.30010525900836" as="offset"/>
                    </mxGeometry>
                </mxCell>
                <mxCell id="26" value="&amp;lt;&amp;lt;include&amp;gt;&amp;gt;" style="edgeLabel;html=1;align=center;verticalAlign=middle;resizable=0;points=[];fontSize=13;rotation=0;fontStyle=1" vertex="1" connectable="0" parent="1">
                    <mxGeometry x="457.0042681250018" y="113.00217841371354" as="geometry">
                        <mxPoint x="22.854050431714104" y="-11.30010525900836" as="offset"/>
                    </mxGeometry>
                </mxCell>
                <mxCell id="27" value="Cancelar comprar productos" style="ellipse;whiteSpace=wrap;html=1;fontSize=13;fillColor=#f8cecc;strokeColor=#b85450;gradientColor=#ea6b66;fontStyle=1" vertex="1" parent="1">
                    <mxGeometry x="461" y="247" width="184" height="70" as="geometry"/>
                </mxCell>
                <mxCell id="28" value="Use" style="edgeLabel;html=1;align=center;verticalAlign=middle;resizable=0;points=[];fontSize=14;fontStyle=1" vertex="1" connectable="0" parent="1">
                    <mxGeometry x="310.9739781213734" y="181.63492539085655" as="geometry">
                        <mxPoint x="419" y="-9" as="offset"/>
                    </mxGeometry>
                </mxCell>
                <mxCell id="29" value="UC: Ventas" style="shape=umlFrame;whiteSpace=wrap;html=1;fillColor=#dae8fc;strokeColor=#6c8ebf;width=95;height=27;fontStyle=1" vertex="1" parent="1">
                    <mxGeometry x="241" y="-135" width="677" height="477" as="geometry"/>
                </mxCell>
            </root>
        </mxGraphModel>
    </diagram>
</mxfile>